<?xml version="1.0" standalone="no"?>
<!DOCTYPE svg PUBLIC "-//W3C//DTD SVG 20010904//EN"
 "http://www.w3.org/TR/2001/REC-SVG-20010904/DTD/svg10.dtd">
<svg version="1.0" xmlns="http://www.w3.org/2000/svg"
 width="500.000000pt" height="333.000000pt" viewBox="0 0 500.000000 333.000000"
 preserveAspectRatio="xMidYMid meet">

<g transform="translate(0.000000,333.000000) scale(0.100000,-0.100000)"
fill="#000000" stroke="none">
<path d="M0 2312 l0 -1019 40 -18 c32 -15 44 -16 68 -6 15 7 50 11 78 10 27
-1 74 1 104 5 30 4 69 8 85 9 17 1 32 5 35 9 3 4 77 10 164 14 115 5 161 11
172 21 8 8 14 11 14 7 0 -3 7 -1 15 6 8 6 19 9 25 5 5 -3 10 -2 10 3 0 4 65 8
145 8 80 -1 145 -4 145 -8 0 -5 39 -8 87 -8 68 0 91 -4 105 -17 15 -14 33 -16
81 -13 105 7 197 2 212 -10 9 -7 25 -9 37 -6 13 4 60 9 105 12 71 4 82 3 77
-10 -3 -9 3 -20 15 -27 16 -11 18 -16 8 -28 -10 -12 -9 -14 6 -8 10 4 21 7 23
7 2 0 0 8 -5 17 -5 10 -12 26 -15 35 -3 10 -18 20 -33 24 -50 11 -53 13 -53
45 0 17 -7 47 -17 66 -17 36 -16 38 22 58 6 3 5 7 -2 11 -33 15 -54 42 -57 74
-5 41 5 62 49 110 17 19 37 54 44 77 6 23 27 57 46 76 23 23 36 47 39 68 4 40
43 84 83 92 34 7 117 67 121 87 2 8 4 27 4 42 1 16 7 28 14 28 7 0 17 6 21 13
18 30 59 47 110 47 45 0 58 -5 90 -32 21 -18 44 -41 51 -50 7 -10 26 -18 41
-18 38 0 65 -31 59 -70 -4 -25 -2 -29 13 -25 12 4 22 -2 30 -17 13 -23 38 -47
52 -48 4 0 7 9 7 20 0 28 36 61 68 63 16 1 39 15 56 35 16 17 35 32 41 32 7 0
11 20 10 54 0 50 1 54 29 64 16 6 34 8 40 4 6 -3 17 -7 25 -7 8 0 19 -9 25
-20 17 -30 28 -36 66 -33 29 3 37 -1 48 -24 7 -16 20 -28 28 -28 7 0 14 -6 14
-14 0 -8 8 -22 18 -32 9 -10 17 -21 17 -25 0 -5 15 -21 33 -36 17 -15 34 -37
35 -48 2 -11 9 -39 16 -62 l12 -43 34 14 c38 16 45 14 123 -38 23 -16 42 -35
42 -42 0 -8 5 -14 11 -14 7 0 9 9 5 23 -4 17 2 31 27 53 18 17 42 36 55 43 13
7 31 19 40 28 9 8 32 26 51 39 22 15 29 24 18 24 -9 0 -21 8 -26 19 -8 14 -6
22 8 35 18 16 20 16 31 -1 10 -16 10 -15 4 6 -6 22 -4 23 22 17 16 -4 31 -12
35 -17 3 -5 20 -6 37 -3 23 5 34 14 38 31 8 29 51 30 46 1 -3 -16 8 -23 31
-19 4 1 21 -6 37 -14 16 -8 31 -15 33 -15 9 0 14 38 7 50 -12 20 -2 37 37 60
27 16 38 18 49 9 7 -6 18 -8 24 -4 21 13 66 -7 93 -42 32 -43 37 -77 9 -69
-16 5 -18 2 -14 -26 2 -18 9 -38 14 -44 5 -8 3 -14 -6 -17 -17 -7 -10 -43 10
-51 8 -3 14 -1 14 4 0 6 -4 10 -8 10 -5 0 -9 7 -9 15 0 21 19 19 40 -5 16 -19
19 -19 47 -5 38 20 80 20 80 0 0 -17 16 -21 22 -5 6 19 68 -2 98 -32 17 -16
34 -27 40 -23 5 3 12 -5 16 -19 3 -14 12 -30 20 -37 8 -6 11 -16 8 -21 -3 -5
2 -12 12 -15 11 -2 30 -27 42 -54 20 -42 22 -52 11 -66 -12 -13 -11 -15 6 -11
13 2 19 11 17 23 -2 19 -2 19 15 -1 10 -11 25 -19 33 -16 12 4 13 2 3 -9 -17
-17 -16 -30 1 -23 7 3 16 -2 20 -11 3 -10 12 -15 21 -11 12 4 15 -3 15 -29 0
-18 4 -37 10 -40 5 -3 17 -22 27 -42 15 -32 17 -33 24 -16 13 36 48 36 85 -1
28 -28 33 -40 31 -70 -2 -19 -6 -38 -9 -41 -3 -4 -3 -18 1 -33 7 -24 12 -27
42 -24 19 2 40 8 47 14 6 6 12 7 12 3 0 -4 -8 -13 -17 -20 -14 -11 -9 -12 35
-10 29 2 52 -1 52 -6 0 -5 5 -9 10 -9 6 0 10 43 10 110 0 88 -3 108 -14 104
-9 -4 -15 7 -19 38 -7 49 -3 56 18 38 13 -11 15 82 15 884 l0 896 -2500 0
-2500 0 0 -1018z m4952 -876 c22 -45 13 -55 -45 -49 -41 5 -47 8 -47 29 0 17
6 24 20 24 11 0 23 7 26 15 10 24 28 17 46 -19z m-28 -72 c18 -7 21 -30 6 -39
-5 -3 -21 2 -36 12 -24 15 -25 18 -8 24 11 4 20 8 21 8 1 1 8 -2 17 -5z"/>
<path d="M3020 1515 c-7 -9 -10 -19 -6 -22 4 -4 11 -1 16 6 7 12 11 12 23 -1
8 -8 17 -23 19 -34 3 -15 12 -19 48 -19 33 0 46 4 48 16 3 19 -37 39 -79 39
-17 0 -32 6 -35 15 -8 19 -18 19 -34 0z"/>
<path d="M1640 1265 c-11 -13 -10 -14 4 -9 9 3 16 10 16 15 0 13 -6 11 -20 -6z"/>
<path d="M953 1254 c-5 -12 -14 -15 -43 -10 -21 3 -53 3 -71 -1 -33 -7 -33 -7
-9 -14 14 -4 61 -7 106 -8 66 -1 85 3 102 18 12 10 22 21 22 25 0 3 -23 6 -50
6 -37 0 -52 -4 -57 -16z"/>
<path d="M1773 1253 c9 -2 23 -2 30 0 6 3 -1 5 -18 5 -16 0 -22 -2 -12 -5z"/>
<path d="M3750 344 c-19 -7 -58 -13 -87 -13 -28 -1 -55 -6 -58 -11 -4 -6 -30
-22 -58 -37 -46 -23 -70 -27 -192 -34 -77 -5 -158 -13 -180 -20 -22 -6 -80
-15 -130 -20 -49 -5 -92 -14 -95 -19 -8 -13 -87 -40 -116 -40 -12 0 -36 -11
-51 -25 l-28 -25 25 -20 c14 -11 35 -20 47 -20 13 0 22 -6 20 -13 -1 -7 12
-13 36 -15 24 -2 37 -8 37 -18 0 -12 116 -14 845 -14 752 0 845 2 845 15 0 9
-8 19 -17 22 -10 4 -34 17 -53 30 -44 28 -124 45 -141 29 -9 -8 -10 -8 -5 2 5
9 -4 12 -33 12 -25 0 -41 5 -41 12 0 6 -3 8 -6 5 -4 -4 -19 1 -34 10 -24 14
-44 46 -63 105 -8 22 -54 35 -70 19 -14 -14 -54 -15 -62 -1 -3 6 -17 10 -30
10 -32 0 -144 29 -167 44 -10 6 -21 19 -24 28 -7 22 -61 23 -114 2z"/>
<path d="M4576 195 c-3 -8 -3 -22 1 -31 7 -19 56 -40 61 -25 2 6 23 8 54 4 41
-5 50 -3 46 8 -2 8 -18 15 -35 17 -17 2 -39 12 -49 23 -20 23 -69 25 -78 4z"/>
<path d="M4658 3 c6 -2 18 -2 25 0 6 3 1 5 -13 5 -14 0 -19 -2 -12 -5z"/>
</g>
</svg>
